<?xml version="1.0" encoding="utf-8"?>
<!-- Generator: Adobe Illustrator 22.1.0, SVG Export Plug-In . SVG Version: 6.00 Build 0)  -->
<svg version="1.1" id="Layer_1" xmlns="http://www.w3.org/2000/svg" xmlns:xlink="http://www.w3.org/1999/xlink" x="0px" y="0px"
	 viewBox="0 0 1024 1280" style="enable-background:new 0 0 1024 1280;" xml:space="preserve">
<style type="text/css">
	.st0{fill:#754C24;}
	.st1{fill:#754C24;stroke:#8C6239;stroke-miterlimit:10;}
	.st2{fill:#C69C6D;stroke:#C69C6D;stroke-miterlimit:10;}
	.st3{fill:#FFFFFF;}
	.st4{fill:#A67C52;}
	.st5{fill:#231F20;}
	.st6{fill:#603813;}
</style>
<ellipse class="st0" cx="467" cy="536.5" rx="103" ry="131.5"/>
<g>
	<path class="st0" d="M562.2,461.2c0,51.9-42.3,93.8-94.2,93.8s-95-43.1-95-95s43.1-93,95-93S562.2,409.3,562.2,461.2z"/>
</g>
<path class="st1" d="M373.3,458.5l1-80l-32.8-73c0,0,88.7,62.2,123,63.2l129-62.2l-31.9,73v79"/>
<circle class="st2" cx="419" cy="408" r="43"/>
<circle class="st2" cx="513.5" cy="407.5" r="43"/>
<g>
	<circle class="st3" cx="428" cy="407" r="32"/>
	<g>
		<circle class="st4" cx="428" cy="407" r="30"/>
		<circle cx="428" cy="407" r="27"/>
		<circle class="st3" cx="440" cy="394" r="7"/>
		<circle class="st3" cx="448" cy="409" r="4"/>
	</g>
</g>
<g>
	<circle class="st3" cx="506" cy="406" r="32"/>
	<g>
		<circle class="st4" cx="506" cy="406" r="30"/>
		<circle cx="506" cy="406" r="27"/>
		<circle class="st3" cx="518" cy="393" r="7"/>
		<circle class="st3" cx="526" cy="408" r="4"/>
	</g>
</g>
<path d="M250,361"/>
<path class="st5" d="M464.2,441.1c0,0-13.1,8-11.9,27.9c1.2,19.9,2.5,17.5,2.5,17.5s0-6.7,12.3-17.5
	C479.4,458.2,480.6,444.1,464.2,441.1z"/>
<ellipse class="st4" cx="470" cy="569" rx="65" ry="83"/>
<path class="st4" d="M714,530"/>
<path class="st0" d="M344,466"/>
<path class="st0" d="M374.3,477.7"/>
<path class="st0" d="M306,516"/>
<path class="st6" d="M374,478c0,0-35,10-42,38s-9,143,5,160c0,0,91-95,86-114S374,478,374,478z"/>
<path class="st6" d="M563.8,480c0,0,35,10,42,38s9,143-5,160c0,0-91-95-86-114C519.8,545,563.8,480,563.8,480z"/>
<path d="M449,710.9c-2.9-3.6-6.4-6.8-10.1-9.6c-0.2-0.6-0.5-1.2-0.9-1.8v-53.3c0-6.4-10-6.4-10,0V703c0,0.2,0,0.3,0,0.4
	c0,0.1,0,0.2,0,0.3c-5.5,3.3-10.7,7.1-15.6,11.3c-4.9,4.2,2.2,11.2,7.1,7.1c2.5-2.2,5.1-4.2,7.8-6c0,2.1,0,4.2,0.1,6.3
	c0.3,6.4,10.3,6.4,10,0c-0.1-3.1-0.1-6.2,0-9.3c1.6,1.5,3.2,3.2,4.6,5c1.7,2.1,5.3,1.8,7.1,0C451.1,715.9,450.7,713,449,710.9z"/>
<path d="M519.6,713.8c-3.9-1.8-7.3-4.2-10.2-7.3c-0.5-19.2-0.8-38.3-0.8-57.5c0-6.4-10-6.4-10,0c0,19.2,0.3,38.5,0.8,57.7
	c-3.5,3-6.4,6.5-8.8,10.4c-3.4,5.5,5.2,10.5,8.6,5c0.5-0.7,0.9-1.4,1.4-2.1v2.3c0,6.4,10,6.4,10,0v-2c1.3,0.8,2.6,1.5,3.9,2.1
	c2.5,1.1,5.4,0.7,6.8-1.8C522.7,718.5,522.1,714.9,519.6,713.8z"/>
</svg>
